# xmcd CD database file
#
# Track frame offsets:
#	151
#	14641
#	27304
#	38889
#	57199
#	74984
#	93079
#	111699
#	125163
#	138951
#	153500
#	167093
#	181614
#	194350
#	207408
#	220637
#	233651
#	247699
#	259837
#	272266
#
# Disc length: 3821 seconds
#
# Revision: 0
# Processed by: cddbd v1.5.2PL0 Copyright (c) Steve Scherf et al.
# Submitted via: CDex 1.70beta2
#
DISCID=200eeb14
DTITLE=Django Reinhardt - Django Reinhardt Rhythm and Swing(Disc5 1937-1938)
DYEAR=1937
DGENRE=Jazz
TTITLE0=Viper's Dream
TTITLE1=Swingin' With Django
TTITLE2=Paramount Stomp
TTITLE3=Bolero
TTITLE4=Bolero
TTITLE5=Mabel
TTITLE6=Mabel
TTITLE7=My Serenade
TTITLE8=You Rascal You
TTITLE9=Stephen's Blues
TTITLE10=Sugar
TTITLE11=Sweet Georgia Brown
TTITLE12=Tea for Two
TTITLE13=My Sweet
TTITLE14=Honeysuckle Rose
TTITLE15=Sweet Georgia Brown
TTITLE16=Night and Day
TTITLE17=My Sweet
TTITLE18=Souvenirs
TTITLE19=Daphne
EXTD=YEAR: 1937
EXTT0=
EXTT1=
EXTT2=
EXTT3=
EXTT4=
EXTT5=
EXTT6=
EXTT7=
EXTT8=
EXTT9=
EXTT10=
EXTT11=
EXTT12=
EXTT13=
EXTT14=
EXTT15=
EXTT16=
EXTT17=
EXTT18=
EXTT19=
PLAYORDER=
